<svg version="1.1" id="Layer_1" xmlns="http://www.w3.org/2000/svg" xmlns:xlink="http://www.w3.org/1999/xlink" x="0px" y="0px"
	 width="100%" viewBox="0 0 500 500" enable-background="new 0 0 500 500" xml:space="preserve">
<path fill="#000000" opacity="1.000000" stroke="none" 
	d="
M285.000000,501.000000 
	C191.333359,501.000000 98.166679,500.975891 5.000190,501.095703 
	C1.576153,501.100128 0.903036,500.423828 0.905301,497.000000 
	C1.013778,333.000092 1.013756,169.000122 0.905337,5.000248 
	C0.903074,1.576952 1.575788,0.903021 4.999875,0.905286 
	C168.999756,1.013775 332.999725,1.013761 496.999634,0.905353 
	C500.422668,0.903091 501.096985,1.575426 501.094727,4.999755 
	C500.986206,168.999634 500.986237,332.999603 501.094604,496.999512 
	C501.096893,500.422272 500.425690,501.102692 497.000244,501.096466 
	C426.500336,500.968201 356.000153,501.000000 285.000000,501.000000 
z"/>
<path fill="#10D0D6" opacity="1.000000" stroke="none" 
	d="
M189.327881,119.813400 
	C183.554153,134.191742 163.824509,140.401535 150.690826,129.329102 
	C139.793137,120.141716 139.001373,103.832085 148.267090,93.483788 
	C157.001160,83.729240 173.709946,83.206299 181.892090,91.444359 
	C184.087830,93.655113 186.752884,95.461449 188.167328,98.430550 
	C189.297150,100.802162 191.610031,99.969040 193.480865,99.970886 
	C229.477478,100.006454 265.477783,99.689941 301.469391,100.115654 
	C322.147522,100.360245 342.115295,104.623619 361.268127,112.935555 
	C382.160828,122.002541 399.809113,135.378098 414.626678,152.318878 
	C431.440308,171.541779 442.703430,193.739365 448.117218,218.938843 
	C451.457855,234.488403 452.089813,250.214539 450.739960,265.751282 
	C448.195740,295.036102 437.507324,321.463165 418.982330,344.567932 
	C405.287933,361.647827 388.994049,375.362061 369.397705,385.341522 
	C352.842560,393.772278 335.594696,399.173096 317.098694,401.189636 
	C311.127625,401.840637 305.226593,401.942230 299.298401,401.956879 
	C264.135223,402.043640 228.971466,402.055176 193.808655,401.910950 
	C190.421906,401.897095 188.372009,402.903656 186.714645,405.744446 
	C180.579697,416.259949 165.159576,418.640839 155.432419,413.776550 
	C144.623245,408.371185 139.488663,396.024841 142.967300,384.481873 
	C145.978622,374.489624 153.068100,369.020935 162.739014,367.138123 
	C172.407974,365.255676 183.016830,370.898041 188.176483,379.555573 
	C188.982819,380.908508 189.620529,382.113892 191.780075,382.078918 
	C202.575989,381.904022 213.376297,381.998871 225.210953,381.998871 
	C217.084061,376.474304 209.866318,371.378967 203.022491,365.723145 
	C194.181213,358.416565 186.910202,349.842529 179.900131,340.885529 
	C175.855026,335.716980 172.661880,330.058350 169.332047,324.485870 
	C168.045135,322.332275 166.690384,321.954773 164.583267,321.975830 
	C158.251144,322.039062 151.902557,322.260101 145.591827,321.887390 
	C142.464432,321.702667 140.665619,322.953125 139.314133,325.276184 
	C132.868393,336.355835 117.720276,339.593079 106.528893,333.109528 
	C93.082130,325.319366 91.688179,307.754150 99.038139,297.575989 
	C110.122581,282.226440 130.556702,283.698273 140.377060,300.000244 
	C141.604080,302.037170 143.004303,302.006378 144.786972,302.004700 
	C155.119339,301.995117 165.453094,302.093658 175.783218,301.941345 
	C178.752960,301.897583 180.638107,302.572937 181.978104,305.494019 
	C187.876328,318.351471 195.925262,329.679321 205.500626,340.176270 
	C223.942444,360.393005 246.871918,372.541168 273.046967,378.769623 
	C282.053619,380.912781 291.592926,382.101898 300.820648,381.778687 
	C323.817200,380.973328 345.776489,375.941528 366.080627,364.141052 
	C383.559662,353.982513 397.891724,340.691498 409.127289,324.184479 
	C420.188660,307.933380 427.052032,289.920990 430.159882,270.318573 
	C434.151672,245.140854 430.105194,221.399353 420.107605,198.242371 
	C413.071655,181.945251 403.075562,167.780243 390.173676,155.803696 
	C371.914856,138.854462 350.562408,127.732338 325.931976,122.869232 
	C317.673309,121.238609 309.254272,120.201416 301.087616,120.318489 
	C285.636871,120.539993 270.368866,123.112190 255.659073,128.634277 
	C234.818283,136.457947 217.160172,148.750778 202.389694,165.204269 
	C193.650452,174.939316 186.623123,185.959106 181.258347,197.879883 
	C180.094574,200.465836 179.037308,201.027924 176.697281,201.018387 
	C166.198425,200.975540 155.698853,201.051712 145.200577,200.963547 
	C142.556030,200.941345 140.858459,201.431305 139.256058,204.053299 
	C129.702072,219.686188 106.107887,219.351776 97.299774,202.147827 
	C90.327248,188.529144 96.379936,168.523270 115.520760,166.011978 
	C125.359390,164.721146 133.244125,168.034500 138.850494,176.358978 
	C140.696335,179.099747 142.917816,180.460541 146.515762,180.104080 
	C150.971603,179.662613 155.595978,179.429855 159.981888,180.135895 
	C166.069992,181.115982 169.347855,178.368149 171.898224,173.468735 
	C177.853531,162.028275 186.335022,152.459167 195.268158,143.373581 
	C203.993607,134.499207 213.839737,126.896698 224.842804,120.405144 
	C224.621475,119.722389 224.253464,119.257988 223.770905,119.249306 
	C212.388107,119.044579 201.000946,118.458878 189.327881,119.813400 
z"/>
<path fill="#10D0D6" opacity="1.000000" stroke="none" 
	d="
M97.407486,260.796600 
	C92.592575,271.088470 83.101501,277.146088 72.428490,275.904572 
	C61.312229,274.611572 53.929737,268.897278 51.434315,258.372314 
	C47.537205,241.935425 57.053761,226.810913 74.901665,226.855820 
	C84.722687,226.880539 91.411186,231.208328 96.378944,238.991211 
	C97.454071,240.675583 98.503036,241.033691 100.279411,241.031265 
	C132.111877,240.987671 163.944427,240.984512 195.776901,241.031860 
	C197.934219,241.035065 198.826233,240.694305 199.093735,238.132507 
	C201.104233,218.878433 208.536697,201.895813 220.637955,186.772980 
	C231.206436,173.565674 244.143219,163.623672 259.563782,156.835541 
	C268.976959,152.691879 278.718628,150.137039 289.024872,148.826385 
	C309.890442,146.172913 329.415558,150.064499 347.830780,159.511307 
	C362.698029,167.138062 374.853333,178.053253 384.550232,191.872253 
	C394.201996,205.626907 399.895752,220.588333 402.108826,237.222778 
	C404.864105,257.932678 402.092865,277.722260 393.053741,296.404358 
	C384.482239,314.120026 371.680756,328.331848 354.773499,338.667175 
	C337.023529,349.517609 317.716644,354.784393 296.968689,353.926270 
	C274.524689,352.997955 254.476334,345.399750 236.769928,331.372528 
	C223.210297,320.630463 213.191849,307.265991 206.358643,291.580994 
	C202.276489,282.210785 198.845108,272.485168 198.985123,261.528687 
	C197.620209,259.784973 195.902481,260.012512 194.264709,260.011627 
	C163.409042,259.994812 132.553375,259.995758 101.697701,260.009583 
	C100.379059,260.010162 99.033577,259.890198 97.407486,260.796600 
z"/>
<path fill="#11DFE6" opacity="1.000000" stroke="none" 
	d="
M97.491364,261.033661 
	C97.800163,258.776703 99.765121,259.013153 101.569847,259.012543 
	C132.593628,259.002228 163.617401,259.002472 194.641174,259.016693 
	C196.105865,259.017334 197.689667,258.818481 198.813446,260.729065 
	C165.300797,261.050934 131.628189,261.015320 97.491364,261.033661 
z"/>
<path fill="#11DFE6" opacity="1.000000" stroke="none" 
	d="
M189.490845,120.032471 
	C189.587036,118.320847 190.993958,118.020126 192.583313,118.019936 
	C203.053543,118.018723 213.523804,118.004784 223.993988,118.027893 
	C224.943878,118.029984 226.254044,117.980927 225.115967,119.855148 
	C213.296570,120.046738 201.625870,120.012909 189.490845,120.032471 
z"/>
<path fill="#000000" opacity="1.000000" stroke="none" 
	d="
M225.757629,216.644867 
	C230.709290,205.427994 237.423569,196.181931 246.719437,188.529480 
	C257.374451,179.758102 269.023926,173.538101 282.547394,170.779404 
	C307.414062,165.706787 330.260406,170.142700 350.778351,185.307388 
	C368.267120,198.233215 378.706757,215.884033 382.748444,236.890015 
	C386.516785,256.475281 382.556000,274.982819 372.350555,292.401276 
	C363.539246,307.440155 351.496582,318.677856 335.920807,325.885345 
	C321.834503,332.403595 307.074799,335.209137 291.216278,333.197784 
	C271.412659,330.686127 254.783035,322.522705 241.031128,308.428406 
	C228.898804,295.994019 221.492264,281.096069 218.935532,263.754211 
	C216.531250,247.446579 218.176468,231.840576 225.757629,216.644867 
z"/>
<path fill="#90A1D4" opacity="1.000000" stroke="none" 
	d="
M319.338684,203.271332 
	C331.324219,197.522888 342.896057,198.708099 352.976410,205.892090 
	C360.281738,211.098404 364.069336,219.471344 364.998688,228.706390 
	C366.479248,243.418945 358.574310,254.604904 350.733643,265.646912 
	C343.931305,275.226624 335.293488,283.232452 327.014648,291.524902 
	C319.970245,298.580841 311.497253,304.025055 304.780029,311.460938 
	C303.594879,312.772858 301.866760,311.690063 300.255798,311.115417 
	C295.827698,309.535797 294.062927,305.309753 290.931061,302.474487 
	C275.491974,288.497406 260.230072,274.323914 249.087936,256.492157 
	C242.262039,245.568008 238.319763,234.145142 242.856308,220.845947 
	C249.667984,200.877090 269.091827,196.203094 285.720764,202.726654 
	C294.757843,206.271912 298.744354,213.281799 302.889587,221.732651 
	C307.220551,214.199844 310.006348,205.938400 319.338684,203.271332 
z"/>
</svg>