<svg xmlns="http://www.w3.org/2000/svg" xmlns:xlink="http://www.w3.org/1999/xlink" width="500" zoomAndPan="magnify" viewBox="0 0 375 374.999991" height="500" preserveAspectRatio="xMidYMid meet" version="1.0"><defs><clipPath id="b46d9d72b6"><path d="M 37.5 64.019531 L 337.5 64.019531 L 337.5 310.769531 L 37.5 310.769531 Z M 37.5 64.019531 " clip-rule="nonzero"/></clipPath><clipPath id="fda2604bfb"><path d="M 175.785156 137.058594 L 277.035156 137.058594 L 277.035156 238.308594 L 175.785156 238.308594 Z M 175.785156 137.058594 " clip-rule="nonzero"/></clipPath></defs><g clip-path="url(#b46d9d72b6)"><path fill="#10d0d6" d="M 224.871094 110.824219 C 267.234375 110.824219 301.332031 145.238281 301.332031 187.566406 C 301.332031 229.898438 267.234375 263.96875 224.871094 263.96875 C 184.917969 263.96875 152.195312 233.339844 148.410156 194.449219 L 71.945312 194.449219 C 69.191406 200.988281 62.992188 205.464844 55.414062 205.464844 C 45.425781 205.464844 37.503906 197.546875 37.503906 187.566406 C 37.503906 177.589844 45.425781 169.671875 55.414062 169.671875 C 62.992188 169.671875 69.191406 174.148438 71.945312 180.339844 L 148.410156 180.339844 C 152.195312 141.453125 184.917969 110.824219 224.871094 110.824219 Z M 125.332031 134.914062 L 105.011719 134.914062 C 102.257812 128.71875 96.054688 123.902344 88.480469 123.902344 C 78.492188 123.902344 70.570312 132.160156 70.570312 142.140625 C 70.570312 151.777344 78.492188 160.035156 88.480469 160.035156 C 96.054688 160.035156 102.257812 155.5625 105.011719 149.023438 L 133.941406 149.023438 C 136.007812 144.207031 138.421875 139.386719 141.519531 134.914062 C 158.398438 108.070312 188.359375 89.832031 222.804688 88.800781 L 224.871094 88.800781 C 279.289062 88.800781 323.375 133.195312 323.375 187.566406 C 323.375 241.941406 279.289062 285.992188 224.871094 285.992188 L 222.804688 285.992188 C 188.359375 285.304688 158.398438 267.066406 141.519531 239.878906 C 138.421875 235.402344 136.007812 230.929688 133.941406 226.113281 L 105.011719 226.113281 C 102.257812 219.574219 96.054688 215.101562 88.480469 215.101562 C 78.492188 215.101562 70.570312 223.015625 70.570312 232.996094 C 70.570312 242.976562 78.492188 250.890625 88.480469 250.890625 C 96.054688 250.890625 102.257812 246.417969 105.011719 239.878906 L 125.332031 239.878906 C 135.664062 259.492188 151.164062 275.324219 170.453125 285.992188 L 140.832031 285.992188 C 138.074219 279.453125 131.53125 274.980469 123.953125 274.980469 C 114.3125 274.980469 106.042969 282.894531 106.042969 292.875 C 106.042969 302.855469 114.3125 310.769531 123.953125 310.769531 C 131.53125 310.769531 138.074219 306.296875 140.832031 300.101562 L 224.871094 300.101562 C 286.863281 300.101562 337.496094 249.515625 337.496094 187.566406 C 337.496094 125.277344 286.863281 75.035156 224.871094 75.035156 L 140.832031 75.035156 C 138.074219 68.496094 131.53125 64.019531 123.953125 64.019531 C 114.3125 64.019531 106.042969 71.9375 106.042969 81.917969 C 106.042969 91.898438 114.3125 99.8125 123.953125 99.8125 C 131.53125 99.8125 138.074219 95.339844 140.832031 88.800781 L 170.453125 88.800781 C 151.164062 99.46875 135.664062 115.640625 125.332031 134.914062 Z M 224.871094 124.933594 C 259.3125 124.933594 287.554688 152.808594 287.554688 187.566406 C 287.554688 221.984375 259.3125 250.203125 224.871094 250.203125 C 190.082031 250.203125 162.183594 221.984375 162.183594 187.566406 C 162.183594 152.808594 190.082031 124.933594 224.871094 124.933594 Z M 224.871094 124.933594 " fill-opacity="1" fill-rule="evenodd"/></g><g clip-path="url(#fda2604bfb)"><path fill="#03767b" d="M 277.035156 187.683594 C 277.035156 189.339844 276.957031 190.996094 276.792969 192.644531 C 276.628906 194.292969 276.386719 195.933594 276.0625 197.558594 C 275.742188 199.183594 275.339844 200.792969 274.855469 202.378906 C 274.375 203.964844 273.816406 205.523438 273.183594 207.054688 C 272.546875 208.585938 271.839844 210.085938 271.058594 211.546875 C 270.277344 213.007812 269.425781 214.429688 268.503906 215.808594 C 267.582031 217.1875 266.597656 218.515625 265.546875 219.796875 C 264.492188 221.082031 263.382812 222.308594 262.210938 223.480469 C 261.035156 224.652344 259.808594 225.765625 258.527344 226.816406 C 257.246094 227.867188 255.917969 228.855469 254.539062 229.777344 C 253.160156 230.695312 251.738281 231.546875 250.277344 232.328125 C 248.8125 233.113281 247.316406 233.820312 245.785156 234.453125 C 244.253906 235.089844 242.695312 235.644531 241.109375 236.128906 C 239.519531 236.609375 237.914062 237.011719 236.289062 237.335938 C 234.660156 237.660156 233.023438 237.902344 231.375 238.0625 C 229.722656 238.226562 228.070312 238.308594 226.410156 238.308594 C 224.753906 238.308594 223.101562 238.226562 221.449219 238.0625 C 219.800781 237.902344 218.160156 237.660156 216.535156 237.335938 C 214.910156 237.011719 213.304688 236.609375 211.714844 236.128906 C 210.128906 235.644531 208.570312 235.089844 207.039062 234.453125 C 205.507812 233.820312 204.007812 233.113281 202.546875 232.328125 C 201.085938 231.546875 199.664062 230.695312 198.285156 229.777344 C 196.90625 228.855469 195.578125 227.867188 194.296875 226.816406 C 193.015625 225.765625 191.785156 224.652344 190.613281 223.480469 C 189.441406 222.308594 188.328125 221.082031 187.277344 219.796875 C 186.226562 218.515625 185.238281 217.1875 184.320312 215.808594 C 183.398438 214.429688 182.546875 213.007812 181.765625 211.546875 C 180.984375 210.085938 180.273438 208.585938 179.640625 207.054688 C 179.007812 205.523438 178.449219 203.964844 177.964844 202.378906 C 177.484375 200.792969 177.082031 199.183594 176.757812 197.558594 C 176.4375 195.933594 176.191406 194.292969 176.03125 192.644531 C 175.867188 190.996094 175.785156 189.339844 175.785156 187.683594 C 175.785156 186.023438 175.867188 184.371094 176.03125 182.71875 C 176.191406 181.070312 176.4375 179.433594 176.757812 177.804688 C 177.082031 176.179688 177.484375 174.574219 177.964844 172.988281 C 178.449219 171.398438 179.007812 169.839844 179.640625 168.308594 C 180.273438 166.777344 180.984375 165.28125 181.765625 163.816406 C 182.546875 162.355469 183.398438 160.933594 184.320312 159.558594 C 185.238281 158.179688 186.226562 156.847656 187.277344 155.566406 C 188.328125 154.285156 189.441406 153.058594 190.613281 151.886719 C 191.785156 150.714844 193.015625 149.601562 194.296875 148.550781 C 195.578125 147.496094 196.90625 146.511719 198.285156 145.589844 C 199.664062 144.667969 201.085938 143.816406 202.546875 143.035156 C 204.007812 142.253906 205.507812 141.546875 207.039062 140.910156 C 208.570312 140.277344 210.128906 139.71875 211.714844 139.238281 C 213.304688 138.757812 214.910156 138.355469 216.535156 138.03125 C 218.160156 137.707031 219.800781 137.464844 221.449219 137.300781 C 223.101562 137.140625 224.753906 137.058594 226.410156 137.058594 C 228.070312 137.058594 229.722656 137.140625 231.375 137.300781 C 233.023438 137.464844 234.660156 137.707031 236.289062 138.03125 C 237.914062 138.355469 239.519531 138.757812 241.109375 139.238281 C 242.695312 139.71875 244.253906 140.277344 245.785156 140.910156 C 247.316406 141.546875 248.8125 142.253906 250.277344 143.035156 C 251.738281 143.816406 253.160156 144.667969 254.539062 145.589844 C 255.917969 146.511719 257.246094 147.496094 258.527344 148.550781 C 259.808594 149.601562 261.035156 150.714844 262.210938 151.886719 C 263.382812 153.058594 264.492188 154.285156 265.546875 155.566406 C 266.597656 156.847656 267.582031 158.179688 268.503906 159.558594 C 269.425781 160.933594 270.277344 162.355469 271.058594 163.816406 C 271.839844 165.28125 272.546875 166.777344 273.183594 168.308594 C 273.816406 169.839844 274.375 171.398438 274.855469 172.988281 C 275.339844 174.574219 275.742188 176.179688 276.0625 177.804688 C 276.386719 179.433594 276.628906 181.070312 276.792969 182.71875 C 276.957031 184.371094 277.035156 186.023438 277.035156 187.683594 Z M 277.035156 187.683594 " fill-opacity="1" fill-rule="nonzero"/></g></svg>