<?xml version="1.0" encoding="UTF-8"?>
<svg version="1.1" xmlns="http://www.w3.org/2000/svg" width="500" height="500">
<path d="M0 0 C4.55891384 2.7005031 9.23151508 6.65053015 11.625 11.4375 C12.2277774 11.44081015 12.83055479 11.44412029 13.45159817 11.44753075 C28.19526492 11.52915198 42.93883774 11.621368 57.68236446 11.72502708 C64.81255439 11.77490908 71.9427342 11.8213522 79.07299805 11.859375 C85.29590525 11.89256832 91.51872782 11.93254455 97.74154097 11.98029006 C101.02905309 12.00528708 104.31650186 12.02613025 107.60407829 12.04084396 C124.95289976 12.12120512 141.99035831 12.41788508 158.9375 16.5625 C159.80721436 16.77422852 160.67692871 16.98595703 161.57299805 17.20410156 C186.93776076 23.70706606 208.68390868 36.50580853 227.625 54.4375 C228.50929688 55.25734375 229.39359375 56.0771875 230.3046875 56.921875 C237.78677611 64.08602784 243.79749498 71.90363107 249.625 80.4375 C250.33527344 81.46359375 251.04554688 82.4896875 251.77734375 83.546875 C267.30542792 107.28485714 274.0795551 135.01638266 273.9375 163.125 C273.93476578 164.24876541 273.93476578 164.24876541 273.93197632 165.39523315 C273.88583688 176.66362568 273.36945035 187.47076491 270.625 198.4375 C270.45871094 199.12440918 270.29242188 199.81131836 270.12109375 200.51904297 C262.14880023 232.76992298 242.97548424 262.23300859 216.625 282.4375 C215.24054688 283.54544922 215.24054688 283.54544922 213.828125 284.67578125 C188.54926699 304.45477961 156.59217555 314.92744554 124.56445312 314.62939453 C123.34309662 314.62658981 122.12174011 314.6237851 120.8633728 314.62089539 C118.24006392 314.61444968 115.61676238 314.60392225 112.9934845 314.58963394 C108.84046394 314.56743487 104.68761343 314.5672784 100.5345459 314.57150269 C99.10480501 314.57269542 97.67506411 314.57386446 96.24532318 314.5750103 C95.53031993 314.57559055 94.81531668 314.5761708 94.07864666 314.57676864 C84.43281367 314.58276955 74.78729431 314.57014977 65.14160156 314.51660156 C58.60031344 314.48046387 52.05964932 314.47271072 45.51829863 314.49709976 C42.0670621 314.50876296 38.6172271 314.5058032 35.16615295 314.46759415 C31.32707225 314.42520004 27.48965627 314.44472347 23.65039062 314.46923828 C22.51576385 314.44668472 21.38113708 314.42413116 20.21212769 314.40089417 C14.43312146 314.39194246 14.43312146 314.39194246 9.63299561 317.21728134 C8.132697 319.22740829 6.89382854 321.27826254 5.625 323.4375 C-0.31939768 328.24915411 -6.83940599 329.17621339 -14.3203125 328.859375 C-21.24826106 327.90257392 -25.84766946 324.71938563 -30.375 319.4375 C-35.42573691 312.56288587 -36.15281863 306.85624277 -35.375 298.4375 C-33.54802969 290.73459817 -28.66127138 285.96405809 -22.375 281.4375 C-16.47249199 278.3579306 -8.992655 278.30698281 -2.6875 280.27734375 C3.38560893 283.02690679 7.91584424 286.87376636 11.625 292.4375 C11.625 293.0975 11.625 293.7575 11.625 294.4375 C22.845 294.1075 34.065 293.7775 45.625 293.4375 C43.541875 291.973125 41.45875 290.50875 39.3125 289 C25.87229001 279.43295012 14.05438995 269.11840687 3.9375 256.0625 C3.36418945 255.33353516 2.79087891 254.60457031 2.20019531 253.85351562 C-1.12540606 249.50091885 -3.11520895 245.61604066 -5 240.4375 C-7.27289323 237.205935 -8.51353449 235.65751984 -12.3918457 234.66699219 C-13.51679443 234.60672852 -14.64174316 234.54646484 -15.80078125 234.484375 C-17.02007324 234.41476562 -18.23936523 234.34515625 -19.49560547 234.2734375 C-25.13077337 234.14656152 -30.74357269 234.20288139 -36.375 234.4375 C-36.66850342 235.22229736 -36.96200684 236.00709473 -37.2644043 236.81567383 C-39.39295794 241.84063263 -44.17576251 245.22791938 -48.875 247.8125 C-57.18098621 249.88899655 -63.89874691 249.80728105 -71.5625 245.75 C-77.46636272 240.89571288 -81.90424169 236.01918266 -82.7109375 228.16796875 C-82.81191131 219.00964377 -81.97497518 213.48747208 -75.875 206.625 C-69.61106043 201.14405288 -64.39142251 198.91371369 -55.9609375 199.12890625 C-48.73064654 199.99173553 -43.68562985 203.56556219 -38.6875 208.65625 C-37.375 210.4375 -37.375 210.4375 -36.375 214.4375 C-23.505 214.4375 -10.635 214.4375 2.625 214.4375 C7.08 222.3575 7.08 222.3575 11.625 230.4375 C17.07713939 238.76715741 22.74343383 246.25732543 29.625 253.4375 C30.429375 254.283125 31.23375 255.12875 32.0625 256 C32.908125 256.804375 33.75375 257.60875 34.625 258.4375 C35.63046875 259.41783203 35.63046875 259.41783203 36.65625 260.41796875 C60.91231946 283.29585244 93.75469938 293.52282991 126.625 293.4375 C162.11759051 292.36423123 195.40374075 277.28070217 219.81640625 251.58984375 C242.55549295 226.66505699 255.02957836 192.31512679 253.76123047 158.66845703 C251.97967912 129.49315914 241.8668478 101.63100989 222.625 79.4375 C221.95082031 78.63054687 221.27664063 77.82359375 220.58203125 76.9921875 C198.80157776 51.68084082 167.16689688 36.80674139 134.10620117 33.83618164 C99.46060226 31.35500329 64.72445123 42.25912542 38.31298828 64.94873047 C22.66272397 78.75192858 11.86732754 94.80525268 2.625 113.4375 C0.89999268 113.42009766 0.89999268 113.42009766 -0.85986328 113.40234375 C-5.14311977 113.3697133 -9.42481956 113.38971329 -13.70800781 113.42529297 C-15.5585864 113.43338399 -17.4092843 113.42736467 -19.25976562 113.40673828 C-29.5356977 112.82366983 -29.5356977 112.82366983 -38.81542969 116.1796875 C-40.40865385 118.23101717 -40.40865385 118.23101717 -41.37060547 120.4296875 C-42.98044814 123.6478076 -45.53842804 125.02204028 -48.6875 126.5859375 C-55.72312271 128.81524818 -63.6284455 128.77918571 -70.3125 125.5 C-75.3053832 122.23362781 -80.02899449 117.2472466 -82.04296875 111.546875 C-83.36515413 103.14710908 -83.38234195 94.59283822 -78.375 87.4375 C-72.87509836 81.45535229 -67.66102803 78.30536213 -59.48046875 77.4765625 C-52.56018616 77.34817136 -46.7387861 80.2402516 -41.375 84.4375 C-39.43061605 86.35363624 -37.9697252 88.19491769 -36.375 90.4375 C-36.375 91.0975 -36.375 91.7575 -36.375 92.4375 C-21.12163655 94.27987512 -21.12163655 94.27987512 -7.17773438 89.80078125 C-3.69165365 85.57888417 -1.61469207 80.66946384 0.53759766 75.67382812 C3.09755558 70.40907406 7.57256943 66.57377396 11.625 62.4375 C12.80102554 61.07049596 13.96845798 59.6960269 15.125 58.3125 C23.88766309 48.30964561 34.62923492 40.76801005 45.625 33.4375 C34.405 33.1075 23.185 32.7775 11.625 32.4375 C10.965 34.0875 10.305 35.7375 9.625 37.4375 C4.88885941 42.77246297 -0.73272965 46.87223116 -7.94140625 47.75 C-16.49540136 48.13070632 -22.91561329 45.97856065 -29.25 40.1875 C-34.72883618 34.18747522 -35.9079001 28.11949429 -35.6640625 20.1171875 C-34.99918802 13.95362136 -32.7863677 8.8488677 -28.375 4.4375 C-20.05406021 -1.50843471 -9.88164992 -4.54284102 0 0 Z " fill="#10D0D6" transform="translate(176.375,86.5625)"/>
<path d="M0 0 C0.73476563 0.62003906 1.46953125 1.24007812 2.2265625 1.87890625 C2.81695312 2.32363281 3.40734375 2.76835937 4.015625 3.2265625 C23.27764691 18.15234725 34.23011856 44.43634988 37.2265625 67.87890625 C39.18421166 94.30394657 34.41643244 119.45380734 18.2265625 140.87890625 C17.17662109 142.27882813 17.17662109 142.27882813 16.10546875 143.70703125 C-0.96155255 165.48953972 -24.18120674 177.78776797 -51.15234375 182.46484375 C-79.35771666 185.6900536 -106.71867038 178.39385076 -129.10351562 160.7734375 C-147.72297902 145.66067742 -159.89956069 126.10892752 -165.7734375 102.87890625 C-165.97066406 102.1003125 -166.16789063 101.32171875 -166.37109375 100.51953125 C-166.90573574 97.01061875 -166.7734375 93.42831592 -166.7734375 89.87890625 C-200.4334375 89.87890625 -234.0934375 89.87890625 -268.7734375 89.87890625 C-269.4334375 91.52890625 -270.0934375 93.17890625 -270.7734375 94.87890625 C-275.70446551 100.35234734 -280.59929903 104.41489722 -288.08203125 105.0859375 C-295.56398137 105.3934149 -300.88649754 103.87755699 -307.0234375 99.62890625 C-312.58672488 94.06561887 -314.93831075 88.57035405 -315.0859375 80.75390625 C-315.0859375 73.24095432 -314.1340085 68.40084078 -308.90234375 62.91796875 C-302.00458492 56.52874034 -296.56980598 55.39852041 -287.21875 55.57421875 C-279.20251144 56.28313781 -275.0885607 60.08199711 -270.0234375 66.07421875 C-268.7734375 67.87890625 -268.7734375 67.87890625 -268.7734375 69.87890625 C-235.1134375 69.87890625 -201.4534375 69.87890625 -166.7734375 69.87890625 C-166.7734375 67.23890625 -166.7734375 64.59890625 -166.7734375 61.87890625 C-164.9704343 52.49120246 -161.84630825 43.51521761 -157.7734375 34.87890625 C-157.28230469 33.83089844 -156.79117188 32.78289062 -156.28515625 31.703125 C-151.90231371 22.96882065 -146.31876885 16.03488076 -139.7734375 8.87890625 C-139.11601562 8.13898438 -138.45859375 7.3990625 -137.78125 6.63671875 C-102.15839605 -31.43233976 -39.18734051 -32.78052135 0 0 Z M-92.7734375 1.87890625 C-94.36671875 2.42224609 -94.36671875 2.42224609 -95.9921875 2.9765625 C-114.87076373 10.15334084 -131.20727771 24.78957529 -139.84765625 43.09765625 C-141.70250605 47.28584375 -143.29757128 51.54408865 -144.7734375 55.87890625 C-145.134375 56.93335938 -145.4953125 57.9878125 -145.8671875 59.07421875 C-151.7687724 80.00298741 -147.42624699 102.8223805 -137.28515625 121.640625 C-126.02593534 140.47765092 -108.12095749 154.5879949 -86.8359375 160.25390625 C-64.55133041 165.83112021 -42.70294502 162.7645711 -22.6484375 151.62890625 C-2.54197078 139.33720591 10.38833887 121.22116424 16.3515625 98.62109375 C21.37394402 77.14144423 17.31816919 54.87921335 5.9140625 36.06640625 C2.18003182 30.53511684 -2.09949154 25.63220613 -6.7734375 20.87890625 C-7.80404297 19.82896484 -7.80404297 19.82896484 -8.85546875 18.7578125 C-25.94753314 2.49022617 -47.82700219 -2.80832818 -70.765625 -2.4375 C-78.54348142 -2.14549439 -85.41119845 -0.64979072 -92.7734375 1.87890625 Z " fill="#10D0D6" transform="translate(364.7734375,170.12109375)"/>
<path d="M0 0 C6.81330509 4.10177052 11.9886783 9.16034005 15.31640625 16.39453125 C15.31640625 17.05453125 15.31640625 17.71453125 15.31640625 18.39453125 C15.97640625 18.39453125 16.63640625 18.39453125 17.31640625 18.39453125 C17.48140625 17.59015625 17.64640625 16.78578125 17.81640625 15.95703125 C21.3357951 7.59848274 28.05024371 1.87502074 36.31640625 -1.60546875 C43.38557218 -3.92200304 52.50732413 -3.81341754 59.31640625 -0.85546875 C60.66574322 -0.13465843 62.00126489 0.61307044 63.31640625 1.39453125 C64.36828125 1.95140625 65.42015625 2.50828125 66.50390625 3.08203125 C73.30437501 8.67352779 77.77604415 16.88417203 78.6328125 25.62109375 C79.30648778 45.5705746 67.1643726 61.44786588 54.15673828 75.44580078 C45.78771162 84.30777622 37.32663734 92.94217472 27.734375 100.48828125 C24.14180029 103.3205534 20.73089979 106.35181638 17.31640625 109.39453125 C14.56983214 108.08200911 12.05916971 106.64159624 9.56640625 104.89453125 C8.9528125 104.47171875 8.33921875 104.04890625 7.70703125 103.61328125 C7.248125 103.21109375 6.78921875 102.80890625 6.31640625 102.39453125 C6.31640625 101.73453125 6.31640625 101.07453125 6.31640625 100.39453125 C5.7248877 100.12447266 5.13336914 99.85441406 4.52392578 99.57617188 C2.3306835 98.40217357 0.80017514 97.18812683 -1.00390625 95.48828125 C-1.6165332 94.91464844 -2.22916016 94.34101563 -2.86035156 93.75 C-3.82473145 92.83154297 -3.82473145 92.83154297 -4.80859375 91.89453125 C-5.47729492 91.26160156 -6.14599609 90.62867188 -6.83496094 89.9765625 C-8.17608599 88.70323626 -9.51467636 87.42723448 -10.85058594 86.1484375 C-12.39465802 84.67099825 -13.94821216 83.2034779 -15.50390625 81.73828125 C-29.54156235 68.19713388 -45.58630708 49.48447503 -46.24609375 29.20703125 C-45.9947218 22.92273254 -44.69057537 17.90403376 -41.68359375 12.39453125 C-41.33296875 11.74871094 -40.98234375 11.10289062 -40.62109375 10.4375 C-32.21218845 -2.96419282 -13.874723 -6.4687753 0 0 Z " fill="#90A1D4" transform="translate(285.68359375,201.60546875)"/>
<path d="" fill="#90A0D4" transform="translate(0,0)"/>
</svg>
